<svg width="70" height="48" viewBox="0 0 70 48" fill="none" xmlns="http://www.w3.org/2000/svg">
<mask id="mask0_1042_918" style="mask-type:luminance" maskUnits="userSpaceOnUse" x="56" y="34" width="14" height="14">
<path d="M56.0605 34.1968H69.6336V47.9993H56.0605V34.1968Z" fill="white"/>
</mask>
<g mask="url(#mask0_1042_918)">
<path d="M69.6567 41.2024C69.6567 41.643 69.613 42.0818 69.5273 42.5153C69.4416 42.9489 69.314 43.3685 69.1444 43.7776C68.9749 44.1849 68.7686 44.573 68.5221 44.9402C68.2773 45.309 67.9976 45.6482 67.6847 45.9611C67.3735 46.2741 67.0326 46.552 66.6655 46.7985C66.2984 47.0433 65.9103 47.2513 65.5029 47.4192C65.0939 47.5888 64.6725 47.7164 64.239 47.802C63.8054 47.8895 63.3684 47.9314 62.9261 47.9314C62.4855 47.9314 62.0467 47.8895 61.6132 47.802C61.1796 47.7164 60.7601 47.5888 60.351 47.4192C59.9437 47.2513 59.5556 47.0433 59.1884 46.7985C58.8196 46.552 58.4804 46.2741 58.1675 45.9611C57.8546 45.6482 57.5766 45.309 57.3301 44.9402C57.0854 44.573 56.8773 44.1849 56.7095 43.7776C56.5399 43.3685 56.4123 42.9489 56.3266 42.5153C56.2392 42.0818 56.1973 41.643 56.1973 41.2024C56.1973 40.7601 56.2392 40.323 56.3266 39.8895C56.4123 39.4559 56.5399 39.0346 56.7095 38.6272C56.8773 38.2181 57.0854 37.83 57.3301 37.4629C57.5766 37.0957 57.8546 36.7548 58.1675 36.4436C58.4804 36.1307 58.8196 35.851 59.1884 35.6062C59.5556 35.3597 59.9437 35.1534 60.351 34.9839C60.7601 34.8143 61.1796 34.6867 61.6132 34.601C62.0467 34.5153 62.4855 34.4716 62.9261 34.4716C63.3684 34.4716 63.8054 34.5153 64.239 34.601C64.6725 34.6867 65.0939 34.8143 65.5029 34.9839C65.9103 35.1534 66.2984 35.3597 66.6655 35.6062C67.0326 35.851 67.3735 36.1307 67.6847 36.4436C67.9976 36.7548 68.2773 37.0957 68.5221 37.4629C68.7686 37.83 68.9749 38.2181 69.1444 38.6272C69.314 39.0346 69.4416 39.4559 69.5273 39.8895C69.613 40.323 69.6567 40.7601 69.6567 41.2024Z" fill="url(#paint0_linear_1042_918)"/>
</g>
<path d="M56.494 25.8948V40.5889H56.1898V25.8948C56.1898 25.5347 56.1531 25.1781 56.0832 24.8267C56.0115 24.4735 55.9084 24.1326 55.7703 23.8004C55.6322 23.4683 55.4626 23.1536 55.2633 22.8546C55.064 22.5557 54.8367 22.2795 54.5815 22.0242C54.328 21.7707 54.0518 21.5434 53.7529 21.3441C53.4539 21.1448 53.1392 20.9753 52.8071 20.8371C52.4749 20.699 52.134 20.5959 51.7809 20.5242C51.4277 20.4543 51.0729 20.4176 50.7127 20.4176H47.6289V20.1134H50.7127C51.0921 20.1134 51.468 20.1518 51.8403 20.227C52.2127 20.3004 52.5728 20.4106 52.9242 20.5557C53.2738 20.7025 53.606 20.8809 53.9224 21.0906C54.2371 21.3022 54.5291 21.5417 54.7983 21.8092C55.0658 22.0784 55.3053 22.3704 55.5168 22.6851C55.7266 22.9997 55.9049 23.3337 56.05 23.6833C56.1968 24.0347 56.307 24.3948 56.3804 24.7672C56.4556 25.1396 56.494 25.5155 56.494 25.8948Z" fill="url(#paint1_linear_1042_918)"/>
<mask id="mask1_1042_918" style="mask-type:luminance" maskUnits="userSpaceOnUse" x="34" y="0" width="14" height="48">
<path d="M34.7207 0H48V48H34.7207V0Z" fill="white"/>
</mask>
<g mask="url(#mask1_1042_918)">
<path d="M47.7029 9.06993V48.056H44.7922C44.4635 48.056 44.1349 48.0402 43.8079 48.007C43.481 47.9755 43.1559 47.9266 42.8325 47.8619C42.509 47.7972 42.1909 47.7168 41.8762 47.6224C41.5615 47.5262 41.2521 47.4144 40.9479 47.2885C40.6437 47.1626 40.3465 47.0227 40.0563 46.8672C39.7661 46.7116 39.4846 46.542 39.2102 46.3602C38.9375 46.1766 38.6735 45.9808 38.4182 45.771C38.163 45.563 37.92 45.3427 37.6875 45.1102C37.455 44.8759 37.2347 44.6329 37.0249 44.3794C36.8169 44.1241 36.6211 43.8602 36.4375 43.5874C36.254 43.313 36.0844 43.0315 35.9306 42.7413C35.775 42.4511 35.6334 42.1539 35.5075 41.8497C35.3816 41.5455 35.2697 41.236 35.1753 40.9213C35.0792 40.6067 34.9988 40.2867 34.9341 39.9651C34.8694 39.6416 34.8204 39.3165 34.789 38.9895C34.7558 38.6609 34.74 38.3339 34.7383 38.0035V0H38.6333C38.9305 0.00174814 39.2259 0.0157344 39.5214 0.0454546C39.8168 0.0751747 40.1105 0.118881 40.4025 0.176574C40.6927 0.234266 40.9811 0.307693 41.2643 0.393357C41.5493 0.480769 41.829 0.58042 42.1035 0.694056C42.3762 0.807693 42.6454 0.935315 42.9076 1.07518C43.1681 1.21504 43.4233 1.36713 43.6698 1.53322C43.9163 1.69755 44.1541 1.87413 44.3849 2.06294C44.6139 2.25175 44.8341 2.45105 45.0439 2.66084C45.2537 2.87063 45.453 3.08916 45.6418 3.31993C45.8289 3.54895 46.0072 3.78671 46.1715 4.03497C46.3358 4.28147 46.4897 4.53497 46.6295 4.7972C46.7694 5.05944 46.897 5.32693 47.0107 5.6014C47.1243 5.87588 47.2239 6.1556 47.3096 6.43881C47.397 6.72378 47.4687 7.01049 47.5264 7.30245C47.5858 7.59266 47.6295 7.88637 47.6592 8.18182C47.6872 8.47728 47.7029 8.77448 47.7029 9.06993Z" fill="url(#paint2_linear_1042_918)"/>
</g>
<mask id="mask2_1042_918" style="mask-type:luminance" maskUnits="userSpaceOnUse" x="0" y="0" width="44" height="49">
<path d="M0 0.000183105H43.2995V48.0002H0V0.000183105Z" fill="white"/>
</mask>
<g mask="url(#mask2_1042_918)">
<path d="M26.6819 29.2165L27.0035 29.2148C29.479 29.1868 32.2184 31.2445 32.2586 33.3127C32.2971 35.3564 29.6608 37.4106 28.1259 37.4281C28.1259 37.4281 24.9197 37.4735 24.1208 37.5137C23.9564 37.5207 23.7921 37.5277 23.6278 37.5295L14.6595 37.6274C13.3816 37.6396 12.3309 38.6448 12.2907 39.8809C12.2505 41.1536 13.3431 42.1868 14.656 42.1728L20.6261 42.1116C20.995 42.1064 21.2887 42.3931 21.2852 42.7497C21.2852 42.7567 21.2852 42.762 21.2852 42.7672C21.2834 43.1536 20.9565 43.4718 20.5579 43.4753L17.843 43.5032C16.565 43.5172 15.5144 44.5207 15.4759 45.7567C15.4339 47.0312 16.5266 48.0627 17.8395 48.0487L29.4301 47.9298C29.6101 47.9281 29.7849 47.9053 29.9545 47.8669C33.7761 47.5679 37.026 46.1309 39.4123 43.6711C41.9594 41.0452 43.3318 37.4595 43.3842 33.3039V33.2323C43.4366 29.0679 42.143 25.477 39.6413 22.8494C37.0172 20.0889 33.2971 18.6553 28.8829 18.7008L26.9651 18.72C26.8025 18.7218 26.6399 18.7323 26.4791 18.748L16.0423 18.8441C15.5721 18.8319 15.2451 18.8232 15.2451 18.8232C13.7085 18.7934 11.0897 16.7165 11.1474 14.6728C11.2068 12.6046 13.9637 10.5714 16.4392 10.6204L18.5737 10.6623C18.6594 10.6641 18.7433 10.6641 18.8255 10.6606C19.023 10.6553 19.2188 10.6518 19.4181 10.6553L25.9319 10.7742L28.2133 10.8179L31.3968 10.8791C32.7097 10.9036 33.811 9.88261 33.7813 8.60813C33.7534 7.37212 32.7114 6.35813 31.4352 6.33366L28.1993 6.27072L27.1067 6.24974C26.7343 6.24275 26.4336 5.9438 26.4319 5.58366V5.56617C26.4319 5.18331 26.7501 4.87911 27.1452 4.8861L29.3863 4.92981C30.6975 4.95603 31.7989 3.93331 31.7709 2.65883C31.7412 1.42282 30.701 0.40883 29.4231 0.384354L17.058 0.160578C16.8989 0.143095 16.7364 0.130858 16.572 0.127361L14.6542 0.0906476C10.2418 0.00498338 6.50938 1.40708 3.8591 4.1431C1.3347 6.74624 0.00956145 10.3267 0.0235471 14.491V14.5627C0.0375327 18.72 1.3784 22.3179 3.90106 24.9648C5.64576 26.7969 7.86598 28.0714 10.4428 28.7497M8.72085 37.6886L6.96216 37.706C5.67024 37.72 4.60908 38.748 4.59335 40.0032C4.57761 41.2585 5.61255 42.2655 6.90622 42.2515L8.66491 42.234C9.95683 42.22 11.018 41.1921 11.0337 39.9368C11.0495 38.6816 10.0128 37.6746 8.72085 37.6886ZM32.7149 2.72177C32.7114 1.46652 33.7569 0.46827 35.0488 0.494494L36.8075 0.527711C38.0994 0.552186 39.1501 1.59065 39.1553 2.84589C39.1588 4.10114 38.1151 5.09939 36.8214 5.07491L35.0645 5.03995C33.7726 5.01547 32.7202 3.97701 32.7149 2.72177Z" fill="url(#paint3_linear_1042_918)"/>
</g>
<defs>
<linearGradient id="paint0_linear_1042_918" x1="47.306" y1="30.5459" x2="74.8852" y2="41.1157" gradientUnits="userSpaceOnUse">
<stop offset="0.530005" stop-color="#F64965"/>
<stop offset="0.762333" stop-color="#831AB8"/>
</linearGradient>
<linearGradient id="paint1_linear_1042_918" x1="41.7726" y1="14.1414" x2="62.0477" y2="17.5058" gradientUnits="userSpaceOnUse">
<stop offset="0.530005" stop-color="#F64965"/>
<stop offset="0.762333" stop-color="#831AB8"/>
</linearGradient>
<linearGradient id="paint2_linear_1042_918" x1="26.1738" y1="-14.0163" x2="56.3191" y2="-10.8993" gradientUnits="userSpaceOnUse">
<stop offset="0.530005" stop-color="#F64965"/>
<stop offset="0.762333" stop-color="#831AB8"/>
</linearGradient>
<linearGradient id="paint3_linear_1042_918" x1="-28.6217" y1="-13.9019" x2="62.3578" y2="17.6234" gradientUnits="userSpaceOnUse">
<stop offset="0.530005" stop-color="#F64965"/>
<stop offset="0.762333" stop-color="#831AB8"/>
</linearGradient>
</defs>
</svg>
